<?xml version="1.0" encoding="UTF-8"?><svg id="Layer_1" xmlns="http://www.w3.org/2000/svg" viewBox="0 0 15.99 16.12"><defs><style>.cls-1{fill:#fff;}.cls-2{fill:#6a4d00;}</style></defs><path class="cls-2" d="M7.99,16.08C3.62,16.08.06,12.51.06,8.14S3.62.2,7.99.2s7.94,3.56,7.94,7.94-3.56,7.94-7.94,7.94Z"/><path d="M7.99.25c4.35,0,7.89,3.54,7.89,7.89s-3.54,7.89-7.89,7.89S.11,12.49.11,8.14,3.64.25,7.99.25M7.99.15C3.58.15,0,3.73,0,8.14s3.58,7.99,7.99,7.99,7.99-3.58,7.99-7.99S12.4.15,7.99.15h0Z"/><rect class="cls-1" x="7.08" width="2.21" height="15.97"/><rect class="cls-1" y="7.13" width="15.99" height="1.71"/></svg>